<?xml version="1.0" encoding="UTF-8"?> <svg xmlns="http://www.w3.org/2000/svg" xmlns:xlink="http://www.w3.org/1999/xlink" id="Layer_1" x="0px" y="0px" width="197" height="30" viewBox="0 0 611 94" xml:space="preserve"> <style type="text/css"> .st0{fill:#FFFFFF;} .st1{fill:#F05423;} </style> <path class="st0" d="M128,0c-14,0-24,10-24,24v36c0,14,10,24,24,24h46V64h-46c-0.16,0-0.33,0-0.5,0c-1.93,0-3.5-1.57-3.5-3.5 c0-0.16,0-0.33,0-0.5V24c0-0.16,0-0.33,0-0.5c0-1.93,1.57-3.5,3.5-3.5c0.16,0,0.33,0,0.5,0h32c12,0,20-8,20-20h-20H128z"></path> <path class="st0" d="M72,0H26C14,0,6,8,6,20h20h46c12,0,20-8,20-20H72z"></path> <path class="st0" d="M396,0c-12,0-20,8-20,20h20h42c12,0,20-8,20-20h-20H396z"></path> <path class="st0" d="M234,32h-20h0h-16c-0.17,0-0.34,0-0.5,0c-1.93,0-3.5,1.51-3.5,3.37c0,0.16,0,0.32,0,0.48V84h20V52h20h20 C254,40,246,32,234,32z"></path> <path class="st0" d="M258,0h-44c-12,0-20,8-20,20h20h44c0.16,0,0.33,0,0.5,0c1.93,0,3.5,1.57,3.5,3.5c0,0.16,0,0.33,0,0.5h0v44 c0,12,8,20,20,20V68V24h0C282,10,272,0,258,0z"></path> <path class="st0" d="M325.5,64c-1.93,0-3.5-1.57-3.5-3.5c0-0.16,0-0.33,0-0.5V20c0-12-8-20-20-20v20v40c0,14,10,24,24,24h40V64h-40 C325.84,64,325.67,64,325.5,64z"></path> <path class="st0" d="M70,32H26H6c0,12,8,20,20,20h44c0.16,0,0.33,0,0.5,0c1.93,0,3.5,1.57,3.5,3.5c0,0.16,0,0.5,0,0.5v4 c0,0.16,0,0.33,0,0.5c0,1.93-1.57,3.5-3.5,3.5c-0.16,0-0.5,0-0.5,0H20C8,64,0,72,0,84h20h50c14,0,24-10,24-24v-4C94,42,84,32,70,32z "></path> <path class="st0" d="M399.5,64c-1.93,0-3.5-1.57-3.5-3.5c0-0.16,0-0.33,0-0.5v-8h19c12,0,20-8,20-20h-20h-19h-16 c-0.17,0-0.34,0-0.5,0c-1.93,0-3.5,1.57-3.5,3.5c0,0.17,0,0.34,0,0.5v24c0,14,10,24,24,24h52V64h-52C399.84,64,399.67,64,399.5,64z"></path> <path class="st1" d="M594.2,32L594.2,32h-23.4C561,32,554,39,554,48.8v18.4c0,9.8,7,16.8,16.8,16.8l0,0h5.9l5.55,5.55 c5.94,5.94,13.86,5.94,19.8,0l-5.68-5.68C605.01,82.91,611,76.26,611,67.2l0,0V48.8C611,39,604,32,594.2,32z M597,67.2 c0,0.12,0,0.23,0,0.35c0,1.35-1.1,2.45-2.45,2.45c-0.11,0-0.23,0-0.35,0v0h-11.7l0,0l0,0h-11.7v0c-0.12,0-0.23,0-0.35,0 c-1.35,0-2.45-1.1-2.45-2.45c0-0.11,0-0.23,0-0.35V48.8c0-0.12,0-0.23,0-0.35c0-1.35,1.1-2.45,2.45-2.45c0.11,0,0.23,0,0.35,0v0 h23.4v0c0.12,0,0.23,0,0.35,0c1.35,0,2.45,1.1,2.45,2.45c0,0.11,0,0.23,0,0.35V67.2L597,67.2z"></path> <rect x="494" class="st0" width="110" height="20"></rect> <path class="st1" d="M544,48.8c0-9.8-7-16.8-16.8-16.8H501c-8.4,0-14,5.6-14,14h14h26.2v0c0.12,0,0.23,0,0.35,0 c1.35,0,2.45,1.1,2.45,2.45c0,0.11,0,0.23,0,0.35h0V74c0,8.4,5.6,14,14,14V74L544,48.8L544,48.8z"></path> <path class="st1" d="M510,56h-9h-11.2c-0.12,0-0.24,0-0.35,0c-1.35,0-2.45,1.12-2.45,2.49c0,0.12,0,0.24,0,0.36V84h14V70h9h14 C524,61.6,518.4,56,510,56z"></path> </svg> 