<svg width="130" height="22" viewBox="0 0 130 22" fill="none" xmlns="http://www.w3.org/2000/svg">
    <path
        d="M85.0087 0C82.7425 0 80.8633 1.87925 80.8633 4.14541H85.0087H94.1286C96.3947 4.14541 98.274 2.26616 98.274 0H94.1286H85.0087Z"
        fill="#fff" />
    <path
        d="M26.973 0C24.2094 0 21.9985 2.21088 21.9985 4.97449V14.0944C21.9985 16.858 24.2094 19.0689 26.973 19.0689H37.7511V14.9235H26.973C26.5308 14.9235 26.1439 14.5366 26.1439 14.0944V4.97449C26.1439 4.53231 26.5308 4.14541 26.973 4.14541H35.2638C37.53 4.14541 39.4093 2.26616 39.4093 0H35.2638H26.973Z"
        fill="#fff" />
    <path
        d="M5.80361 0C3.53745 0 1.6582 1.87925 1.6582 4.14541H5.80361H16.5817C18.8478 4.14541 20.7271 2.26616 20.7271 0H16.5817H5.80361Z"
        fill="#fff" />
    <path
        d="M13.7075 19.0688C17.1344 19.0688 19.9532 16.3052 19.9532 12.8231V11.6071C19.9532 9.34092 18.074 7.46167 15.8078 7.46167H5.85884H1.65816C1.65816 9.72783 3.53742 11.6071 5.80357 11.6071H15.7526V12.8783C15.7526 14.0391 14.8129 14.9787 13.6522 14.9787H4.14541C1.87925 14.9234 0 16.8027 0 19.0688H4.14541H13.7075Z"
        fill="#fff" />
    <path
        d="M85.8378 19.0688H96.6158V14.9234H85.8378C85.3956 14.9234 85.0087 14.5365 85.0087 14.0943V11.6071H89.1541C91.4203 11.6071 93.2995 9.72783 93.2995 7.46167H89.1541H85.0087H80.8633V14.0943C80.8633 16.8579 83.1294 19.0688 85.8378 19.0688Z"
        fill="#fff" />
    <path
        d="M69.2558 14.0944V4.14541C69.2558 1.87925 67.3765 0 65.1104 0V4.14541V14.0944C65.1104 16.858 67.3212 19.0689 70.0848 19.0689H78.8178V14.9235H70.0848C69.6427 14.9235 69.2558 14.5366 69.2558 14.0944Z"
        fill="#fff" />
    <path
        d="M55.9909 0H46.0419C43.7757 0 41.8965 1.87925 41.8965 4.14541H46.0419H55.9909C56.433 4.14541 56.82 4.53231 56.82 4.97449V15.9736C56.82 18.2398 58.6992 20.119 60.9654 20.119V15.9736V4.97449C60.9654 2.21088 58.7545 0 55.9909 0Z"
        fill="#fff" />
    <path
        d="M46.0419 11.6071H50.1873H54.3327C54.3327 9.34092 52.4535 7.46167 50.1873 7.46167H46.0419H41.8965V19.0688H46.0419V11.6071Z"
        fill="#fff" />
    <path d="M122 0H103V4H122V0Z" fill="#fff" />
    <path fill-rule="evenodd" clip-rule="evenodd"
        d="M119 16.0001L119 8.70833C119 7.21598 120.216 5.99999 121.708 5.99999L121.708 8.70833L121.708 16.2253C121.758 17.811 120.564 19.1746 119.002 19.4398V16.0001H119Z"
        fill="#FF5000" />
    <path fill-rule="evenodd" clip-rule="evenodd"
        d="M106.263 19.4864L106.5 19.4864L108 19.4864H112.786C114.61 19.4864 116.102 17.994 116.047 16.2253L116.047 8.70833V5.99999C114.554 5.99999 113.338 7.21598 113.338 8.70833V16.2253C113.338 16.557 113.062 16.7781 112.786 16.7781H108L106.5 16.7781L106.263 16.7781C105.986 16.7781 105.71 16.557 105.71 16.2253L105.71 8.70833C105.71 7.21598 104.494 5.99999 103.001 5.99999L103.002 8.70833L103.002 16.2253C102.946 17.994 104.439 19.4864 106.263 19.4864Z"
        fill="#FF5000" />
</svg>
